<svg width="24" height="25" viewBox="0 0 24 25" fill="none" xmlns="http://www.w3.org/2000/svg">
<g clip-path="url(#clip0_93_5634)">
<path d="M22.6796 11.5758C22.9639 11.8908 23.1213 12.3 23.1213 12.7243C23.1213 13.1487 22.9639 13.5579 22.6796 13.8729C20.8796 15.81 16.7825 19.5815 11.9996 19.5815C7.21674 19.5815 3.1196 15.81 1.3196 13.8729C1.0353 13.5579 0.87793 13.1487 0.87793 12.7243C0.87793 12.3 1.0353 11.8908 1.3196 11.5758C3.1196 9.63862 7.21674 5.86719 11.9996 5.86719C16.7825 5.86719 20.8796 9.63862 22.6796 11.5758Z" stroke="#002E5C" stroke-width="2" stroke-linecap="round" stroke-linejoin="round"/>
<path d="M11.9999 16.1521C13.8934 16.1521 15.4284 14.617 15.4284 12.7235C15.4284 10.8299 13.8934 9.29492 11.9999 9.29492C10.1063 9.29492 8.57129 10.8299 8.57129 12.7235C8.57129 14.617 10.1063 16.1521 11.9999 16.1521Z" stroke="#002E5C" stroke-width="2" stroke-linecap="round" stroke-linejoin="round"/>
</g>
<defs>
<clipPath id="clip0_93_5634">
<rect width="24" height="24" fill="white" transform="translate(0 0.724609)"/>
</clipPath>
</defs>
</svg>
